<svg width="110" height="110" viewBox="0 0 110 110" fill="none" xmlns="http://www.w3.org/2000/svg">
<path d="M55 0C85.3765 0 110 24.6235 110 55C110.007 63.5391 108.023 71.9623 104.205 79.6003C100.387 87.2383 94.84 93.8808 88.0055 99H99C100.459 99 101.858 99.5795 102.889 100.611C103.921 101.642 104.5 103.041 104.5 104.5C104.5 105.959 103.921 107.358 102.889 108.389C101.858 109.421 100.459 110 99 110H55C24.6235 110 0 85.3765 0 55C0 24.6235 24.6235 0 55 0ZM55 66C52.0826 66 49.2847 67.1589 47.2218 69.2218C45.1589 71.2847 44 74.0826 44 77C44 79.9174 45.1589 82.7153 47.2218 84.7782C49.2847 86.8411 52.0826 88 55 88C57.9174 88 60.7153 86.8411 62.7782 84.7782C64.8411 82.7153 66 79.9174 66 77C66 74.0826 64.8411 71.2847 62.7782 69.2218C60.7153 67.1589 57.9174 66 55 66ZM33 44C30.0826 44 27.2847 45.1589 25.2218 47.2218C23.1589 49.2847 22 52.0826 22 55C22 57.9174 23.1589 60.7153 25.2218 62.7782C27.2847 64.8411 30.0826 66 33 66C35.9174 66 38.7153 64.8411 40.7782 62.7782C42.8411 60.7153 44 57.9174 44 55C44 52.0826 42.8411 49.2847 40.7782 47.2218C38.7153 45.1589 35.9174 44 33 44ZM77 44C74.0826 44 71.2847 45.1589 69.2218 47.2218C67.1589 49.2847 66 52.0826 66 55C66 57.9174 67.1589 60.7153 69.2218 62.7782C71.2847 64.8411 74.0826 66 77 66C79.9174 66 82.7153 64.8411 84.7782 62.7782C86.8411 60.7153 88 57.9174 88 55C88 52.0826 86.8411 49.2847 84.7782 47.2218C82.7153 45.1589 79.9174 44 77 44ZM55 22C52.0826 22 49.2847 23.1589 47.2218 25.2218C45.1589 27.2847 44 30.0826 44 33C44 35.9174 45.1589 38.7153 47.2218 40.7782C49.2847 42.8411 52.0826 44 55 44C57.9174 44 60.7153 42.8411 62.7782 40.7782C64.8411 38.7153 66 35.9174 66 33C66 30.0826 64.8411 27.2847 62.7782 25.2218C60.7153 23.1589 57.9174 22 55 22Z" fill="#0F172A"/>
</svg>
