<svg width="227" height="38" viewBox="0 0 227 38" fill="none" xmlns="http://www.w3.org/2000/svg">
<path d="M91 9C96.523 9 101 13.477 101 19C101.001 20.5526 100.64 22.0841 99.9463 23.4728C99.2521 24.8615 98.2436 26.0692 97.001 27H99C99.2652 27 99.5196 27.1054 99.7071 27.2929C99.8946 27.4804 100 27.7348 100 28C100 28.2652 99.8946 28.5196 99.7071 28.7071C99.5196 28.8946 99.2652 29 99 29H91C85.477 29 81 24.523 81 19C81 13.477 85.477 9 91 9ZM91 21C90.4696 21 89.9609 21.2107 89.5858 21.5858C89.2107 21.9609 89 22.4696 89 23C89 23.5304 89.2107 24.0391 89.5858 24.4142C89.9609 24.7893 90.4696 25 91 25C91.5304 25 92.0391 24.7893 92.4142 24.4142C92.7893 24.0391 93 23.5304 93 23C93 22.4696 92.7893 21.9609 92.4142 21.5858C92.0391 21.2107 91.5304 21 91 21ZM87 17C86.4696 17 85.9609 17.2107 85.5858 17.5858C85.2107 17.9609 85 18.4696 85 19C85 19.5304 85.2107 20.0391 85.5858 20.4142C85.9609 20.7893 86.4696 21 87 21C87.5304 21 88.0391 20.7893 88.4142 20.4142C88.7893 20.0391 89 19.5304 89 19C89 18.4696 88.7893 17.9609 88.4142 17.5858C88.0391 17.2107 87.5304 17 87 17ZM95 17C94.4696 17 93.9609 17.2107 93.5858 17.5858C93.2107 17.9609 93 18.4696 93 19C93 19.5304 93.2107 20.0391 93.5858 20.4142C93.9609 20.7893 94.4696 21 95 21C95.5304 21 96.0391 20.7893 96.4142 20.4142C96.7893 20.0391 97 19.5304 97 19C97 18.4696 96.7893 17.9609 96.4142 17.5858C96.0391 17.2107 95.5304 17 95 17ZM91 13C90.4696 13 89.9609 13.2107 89.5858 13.5858C89.2107 13.9609 89 14.4696 89 15C89 15.5304 89.2107 16.0391 89.5858 16.4142C89.9609 16.7893 90.4696 17 91 17C91.5304 17 92.0391 16.7893 92.4142 16.4142C92.7893 16.0391 93 15.5304 93 15C93 14.4696 92.7893 13.9609 92.4142 13.5858C92.0391 13.2107 91.5304 13 91 13Z" fill="white"/>
<path d="M6.878 3.046C7.30867 3.07133 7.73933 3.05867 8.17 3.008V8.1C8.17 8.42933 8.17 8.77133 8.17 9.126C8.19533 9.48067 8.208 9.848 8.208 10.228C8.99333 10.2027 9.81667 10.1647 10.678 10.114C11.5647 10.0633 12.654 10 13.946 9.924C14.1233 10.1267 14.2247 10.4307 14.25 10.836C14.2753 11.216 14.2753 11.634 14.25 12.09C14.2247 12.546 14.1867 13.0147 14.136 13.496C14.1107 13.952 14.1233 14.3447 14.174 14.674H8.284C8.284 16.042 8.284 17.3847 8.284 18.702C8.284 19.994 8.29667 21.21 8.322 22.35C8.57533 22.7047 8.94267 22.9833 9.424 23.186C9.90533 23.3887 10.4247 23.5533 10.982 23.68C11.5393 23.7813 12.0967 23.8447 12.654 23.87C13.2367 23.8953 13.7433 23.8953 14.174 23.87C14.2247 24.2247 14.2753 24.6173 14.326 25.048C14.3767 25.4787 14.4147 25.922 14.44 26.378C14.4653 26.834 14.4527 27.29 14.402 27.746C14.3767 28.202 14.3007 28.62 14.174 29C13.1607 29.0507 12.1093 29.0507 11.02 29C9.93067 28.924 8.90467 28.772 7.942 28.544C6.97933 28.316 6.118 27.974 5.358 27.518C4.62333 27.062 4.09133 26.4413 3.762 25.656C3.43267 23.7053 3.24267 21.8687 3.192 20.146C3.14133 18.398 3.12867 16.5993 3.154 14.75C2.74867 14.7753 2.318 14.788 1.862 14.788C1.43133 14.788 0.95 14.788 0.418 14.788L0.532 10.152C1.03867 10.1773 1.50733 10.19 1.938 10.19C2.394 10.19 2.82467 10.19 3.23 10.19C3.23 9.63267 3.21733 9.03733 3.192 8.404C3.16667 7.74533 3.154 7.08667 3.154 6.428C3.154 5.76933 3.154 5.136 3.154 4.528C3.17933 3.92 3.21733 3.37533 3.268 2.894C3.59733 2.84333 3.952 2.83067 4.332 2.856C4.73733 2.88133 5.15533 2.91933 5.586 2.97C6.01667 2.99533 6.44733 3.02067 6.878 3.046ZM21.0413 11.102C21.0413 11.634 21.0413 11.9507 21.0413 12.052C21.168 11.976 21.32 11.8873 21.4973 11.786C21.7 11.6847 21.8646 11.5833 21.9913 11.482C22.5233 11.102 23.1186 10.798 23.7773 10.57C24.436 10.342 25.1073 10.2153 25.7913 10.19C26.5006 10.1647 27.1846 10.2407 27.8433 10.418C28.502 10.5953 29.0973 10.912 29.6293 11.368C29.8826 11.596 30.0726 12.0773 30.1993 12.812C30.3513 13.5213 30.44 14.3827 30.4653 15.396C30.516 16.4093 30.5286 17.524 30.5033 18.74C30.5033 19.9307 30.4906 21.1467 30.4653 22.388C30.44 23.604 30.4146 24.782 30.3893 25.922C30.364 27.062 30.3766 28.0627 30.4273 28.924C29.5406 29.0507 28.7426 29.1013 28.0333 29.076C27.3493 29.076 26.564 29.076 25.6773 29.076C25.6266 28.4933 25.6013 27.8347 25.6013 27.1C25.6013 26.3653 25.6013 25.6053 25.6013 24.82C25.6266 24.0347 25.6266 23.2493 25.6013 22.464C25.6013 21.6787 25.576 20.944 25.5253 20.26C25.5 19.956 25.4746 19.6267 25.4493 19.272C25.424 18.892 25.3733 18.5247 25.2973 18.17C25.2466 17.8153 25.158 17.4987 25.0313 17.22C24.93 16.9413 24.778 16.726 24.5753 16.574C24.55 16.5487 24.5246 16.536 24.4993 16.536C24.474 16.536 24.4486 16.5233 24.4233 16.498C24.2206 16.3967 23.9166 16.3207 23.5113 16.27C23.1313 16.194 22.7513 16.2193 22.3713 16.346C21.9913 16.4473 21.6493 16.6753 21.3453 17.03C21.0413 17.3593 20.864 17.866 20.8133 18.55C20.7626 19.4367 20.75 20.3107 20.7753 21.172C20.8006 22.008 20.826 22.8567 20.8513 23.718C20.902 24.554 20.9273 25.39 20.9273 26.226C20.9273 27.062 20.8766 27.898 20.7753 28.734V28.886C20.3446 29.0127 19.9646 29.0887 19.6353 29.114C19.3313 29.1393 19.0146 29.1393 18.6853 29.114C18.356 29.114 17.9886 29.1013 17.5833 29.076C17.178 29.0507 16.6713 29.0633 16.0633 29.114C16.0633 28.0753 16.0506 26.834 16.0253 25.39C16.0253 23.9207 16.0126 22.35 15.9873 20.678C15.9873 19.006 15.9873 17.2833 15.9873 15.51C15.9873 13.7113 15.9873 11.9633 15.9873 10.266C15.9873 8.56867 15.9873 6.97267 15.9873 5.478C16.0126 3.958 16.038 2.64067 16.0633 1.526C16.3673 1.55133 16.6206 1.57666 16.8233 1.602C17.026 1.602 17.216 1.602 17.3933 1.602C17.5706 1.602 17.7606 1.602 17.9633 1.602C18.166 1.57666 18.4193 1.55133 18.7233 1.526C18.8246 1.526 19.002 1.51333 19.2553 1.488C19.5086 1.43733 19.762 1.39933 20.0153 1.374C20.2686 1.34866 20.4966 1.34866 20.6993 1.374C20.902 1.374 21.0033 1.412 21.0033 1.488C21.0286 1.61467 21.0413 1.95667 21.0413 2.514C21.0413 3.046 21.0413 3.692 21.0413 4.452C21.0413 5.18667 21.0413 5.98467 21.0413 6.846C21.0413 7.682 21.0413 8.46733 21.0413 9.202C21.0413 9.93667 21.0413 10.57 21.0413 11.102ZM38.8725 19.576C38.3152 19.5507 37.9098 19.5127 37.6565 19.462V20.146C37.6818 20.906 37.7072 21.5267 37.7325 22.008C37.7832 22.4893 37.9478 22.958 38.2265 23.414C38.5305 23.9967 38.9612 24.4273 39.5185 24.706C40.0758 24.9847 40.6205 25.0733 41.1525 24.972C41.6845 24.8707 42.1278 24.5667 42.4825 24.06C42.8625 23.528 43.0272 22.7427 42.9765 21.704C43.2298 21.7293 43.5718 21.742 44.0025 21.742C44.4332 21.7167 44.8765 21.6913 45.3325 21.666C45.8138 21.6407 46.2698 21.6407 46.7005 21.666C47.1312 21.666 47.4858 21.704 47.7645 21.78C47.7138 22.4387 47.6632 23.0847 47.6125 23.718C47.5618 24.3513 47.4985 24.9467 47.4225 25.504C47.3465 26.036 47.2452 26.5047 47.1185 26.91C47.0172 27.29 46.8778 27.556 46.7005 27.708C46.2698 28.316 45.7125 28.7467 45.0285 29C44.3445 29.2533 43.5972 29.4053 42.7865 29.456C41.9758 29.5067 41.1398 29.5067 40.2785 29.456C39.4425 29.4053 38.6698 29.38 37.9605 29.38C37.2512 29.2787 36.5925 29.0507 35.9845 28.696C35.3005 28.2147 34.7305 27.594 34.2745 26.834C33.8185 26.0487 33.4512 25.2 33.1725 24.288C32.8938 23.3507 32.7038 22.3627 32.6025 21.324C32.5012 20.2853 32.4758 19.2467 32.5265 18.208C32.6025 17.2707 32.6785 16.3713 32.7545 15.51C32.8558 14.6233 33.0585 13.762 33.3625 12.926C33.6918 12.1913 34.1985 11.5707 34.8825 11.064C35.5665 10.532 36.3392 10.1393 37.2005 9.886C38.0618 9.60733 38.9738 9.45533 39.9365 9.43C40.8992 9.40467 41.8365 9.506 42.7485 9.734C43.9138 9.93667 44.8512 10.342 45.5605 10.95C46.2698 11.558 46.8018 12.2927 47.1565 13.154C47.5365 14.0153 47.7645 14.9653 47.8405 16.004C47.9165 17.0427 47.9165 18.094 47.8405 19.158C47.6632 19.2087 47.3212 19.2593 46.8145 19.31C46.3332 19.3607 45.7505 19.4113 45.0665 19.462C44.4078 19.5127 43.6985 19.5507 42.9385 19.576C42.1785 19.6013 41.4438 19.614 40.7345 19.614C40.0505 19.614 39.4298 19.6013 38.8725 19.576ZM43.3185 14.598C43.0652 14.142 42.7105 13.8 42.2545 13.572C42.0518 13.4453 41.8492 13.3567 41.6465 13.306C41.4438 13.23 41.2032 13.192 40.9245 13.192C40.3165 13.192 39.8225 13.2553 39.4425 13.382C39.0625 13.5087 38.7585 13.686 38.5305 13.914C38.3025 14.142 38.1252 14.408 37.9985 14.712C37.8972 15.016 37.8212 15.3327 37.7705 15.662C37.7198 15.9407 37.6945 16.1433 37.6945 16.27C37.7198 16.3713 37.8465 16.4473 38.0745 16.498C38.3025 16.5233 38.6572 16.536 39.1385 16.536C39.6452 16.5107 40.3798 16.498 41.3425 16.498C42.0012 16.498 42.4952 16.5107 42.8245 16.536C43.1538 16.5613 43.3818 16.574 43.5085 16.574C43.6605 16.5487 43.7365 16.5107 43.7365 16.46C43.7365 16.384 43.7365 16.2447 43.7365 16.042C43.7365 15.5353 43.5972 15.054 43.3185 14.598ZM62.5667 11.102C62.5667 11.3807 62.5794 11.6973 62.6047 12.052C62.7314 11.976 62.8834 11.8873 63.0607 11.786C63.2634 11.6847 63.428 11.5833 63.5547 11.482C64.0867 11.102 64.682 10.798 65.3407 10.57C65.9994 10.342 66.6707 10.2153 67.3547 10.19C68.064 10.1647 68.748 10.2407 69.4067 10.418C70.0654 10.5953 70.6607 10.912 71.1927 11.368C71.3194 11.4947 71.446 11.71 71.5727 12.014C71.6994 11.938 71.8514 11.862 72.0287 11.786C72.206 11.6847 72.358 11.5833 72.4847 11.482C73.0167 11.102 73.612 10.798 74.2707 10.57C74.9294 10.342 75.6007 10.2153 76.2847 10.19C76.994 10.1647 77.678 10.2407 78.3367 10.418C78.9954 10.5953 79.5907 10.912 80.1227 11.368C80.376 11.596 80.566 12.0773 80.6927 12.812C80.8447 13.5213 80.9334 14.3827 80.9587 15.396C81.0094 16.4093 81.022 17.524 80.9967 18.74C80.9967 19.9307 80.984 21.1467 80.9587 22.388C80.9334 23.604 80.908 24.782 80.8827 25.922C80.8574 27.062 80.87 28.0627 80.9207 28.924C80.034 29.0507 79.236 29.1013 78.5267 29.076C77.8427 29.076 77.0574 29.076 76.1707 29.076C76.12 28.4933 76.0947 27.8347 76.0947 27.1C76.0947 26.3653 76.0947 25.6053 76.0947 24.82C76.12 24.0347 76.12 23.2493 76.0947 22.464C76.0947 21.6787 76.0694 20.944 76.0187 20.26C75.9934 19.956 75.968 19.6267 75.9427 19.272C75.9174 18.892 75.8667 18.5247 75.7907 18.17C75.74 17.8153 75.6514 17.4987 75.5247 17.22C75.4234 16.9413 75.2714 16.726 75.0687 16.574C75.0434 16.5487 75.018 16.536 74.9927 16.536C74.9674 16.536 74.942 16.5233 74.9167 16.498C74.7647 16.422 74.5747 16.3587 74.3467 16.308C74.1187 16.2573 73.8654 16.232 73.5867 16.232C73.3334 16.232 73.0674 16.2827 72.7887 16.384C72.5354 16.46 72.2947 16.5867 72.0667 16.764C72.092 17.752 72.092 18.8033 72.0667 19.918C72.0414 21.0073 72.016 22.0967 71.9907 23.186C71.9654 24.25 71.94 25.2887 71.9147 26.302C71.9147 27.29 71.94 28.164 71.9907 28.924C71.104 29.0507 70.306 29.1013 69.5967 29.076C68.9127 29.076 68.1274 29.076 67.2407 29.076C67.19 28.4933 67.1647 27.8347 67.1647 27.1C67.1647 26.3653 67.1647 25.6053 67.1647 24.82C67.19 24.0347 67.19 23.2493 67.1647 22.464C67.1647 21.6787 67.1394 20.944 67.0887 20.26C67.0634 19.956 67.038 19.6267 67.0127 19.272C66.9874 18.892 66.9367 18.5247 66.8607 18.17C66.81 17.8153 66.7214 17.4987 66.5947 17.22C66.4934 16.9413 66.3414 16.726 66.1387 16.574C66.1134 16.5487 66.088 16.536 66.0627 16.536C66.0374 16.536 66.012 16.5233 65.9867 16.498C65.784 16.3967 65.48 16.3207 65.0747 16.27C64.6947 16.194 64.3147 16.2193 63.9347 16.346C63.5547 16.4473 63.2127 16.6753 62.9087 17.03C62.6047 17.3593 62.4274 17.866 62.3767 18.55C62.326 19.4367 62.3134 20.3107 62.3387 21.172C62.364 22.008 62.3894 22.8567 62.4147 23.718C62.4654 24.554 62.4907 25.39 62.4907 26.226C62.4907 27.062 62.44 27.898 62.3387 28.734V28.886C61.908 29.0127 61.528 29.0887 61.1987 29.114C60.8947 29.1393 60.578 29.1393 60.2487 29.114C59.9194 29.114 59.552 29.1013 59.1467 29.076C58.7414 29.0507 58.2347 29.0633 57.6267 29.114C57.6267 25.998 57.5887 22.882 57.5127 19.766C57.462 16.65 57.4874 13.42 57.5887 10.076C57.8927 10.1013 58.146 10.1267 58.3487 10.152C58.5514 10.152 58.7414 10.152 58.9187 10.152C59.096 10.152 59.286 10.152 59.4887 10.152C59.6914 10.1267 59.9447 10.1013 60.2487 10.076C60.35 10.076 60.5274 10.0633 60.7807 10.038C61.034 9.98733 61.2874 9.94933 61.5407 9.924C61.794 9.89867 62.022 9.89867 62.2247 9.924C62.4274 9.924 62.5287 9.962 62.5287 10.038C62.5794 10.4687 62.592 10.8233 62.5667 11.102ZM102.346 10.076C103.258 10 104.12 10.0127 104.93 10.114C105.108 11.026 105.285 12.0773 105.462 13.268C105.64 14.4333 105.83 15.624 106.032 16.84C106.235 18.056 106.45 19.2213 106.678 20.336C106.906 21.4253 107.16 22.35 107.438 23.11C107.717 22.35 107.97 21.4 108.198 20.26C108.426 19.0947 108.642 17.8913 108.844 16.65C109.072 15.4087 109.313 14.2053 109.566 13.04C109.82 11.8747 110.098 10.912 110.402 10.152C110.833 10.152 111.238 10.1393 111.618 10.114C111.998 10.0887 112.391 10.0633 112.796 10.038C113.202 10.0127 113.62 10 114.05 10C114.481 10 114.962 10.0127 115.494 10.038C114.962 11.482 114.494 12.9893 114.088 14.56C113.708 16.1053 113.341 17.6887 112.986 19.31C112.632 20.9313 112.277 22.5653 111.922 24.212C111.568 25.8333 111.175 27.442 110.744 29.038C110.238 29.114 109.668 29.152 109.034 29.152C108.426 29.1773 107.793 29.1773 107.134 29.152C106.501 29.152 105.868 29.1393 105.234 29.114C104.626 29.114 104.082 29.114 103.6 29.114C103.094 25.9473 102.511 22.7173 101.852 19.424C101.194 16.1307 100.459 12.9893 99.6485 10C100.56 10.1013 101.46 10.1267 102.346 10.076ZM119.435 9.886C120.018 9.91133 120.715 9.91133 121.525 9.886H122.171V10C122.146 13.0653 122.083 16.194 121.981 19.386C121.905 22.578 121.956 25.7067 122.133 28.772C122.007 28.924 121.69 29 121.183 29C120.677 29.0253 120.119 29.0253 119.511 29C118.929 29 118.371 28.9873 117.839 28.962C117.307 28.9367 116.953 28.9493 116.775 29C116.902 27.404 116.953 25.7827 116.927 24.136C116.927 22.4893 116.902 20.8553 116.851 19.234C116.801 17.6127 116.775 16.0167 116.775 14.446C116.775 12.85 116.851 11.3047 117.003 9.81V9.772C117.105 9.74667 117.269 9.74667 117.497 9.772C117.751 9.79733 117.941 9.81 118.067 9.81C118.397 9.83533 118.853 9.86067 119.435 9.886ZM116.889 4.566C116.839 3.75533 116.826 2.76733 116.851 1.602L122.019 1.716C122.019 1.868 122.019 2.14667 122.019 2.552C122.045 2.932 122.057 3.36266 122.057 3.844C122.083 4.3 122.095 4.78133 122.095 5.288C122.121 5.76933 122.133 6.2 122.133 6.58C122.032 6.732 121.791 6.83333 121.411 6.884C121.057 6.93467 120.626 6.96 120.119 6.96C119.638 6.93467 119.119 6.90933 118.561 6.884C118.004 6.83333 117.485 6.82067 117.003 6.846C117.003 6.11133 116.965 5.35133 116.889 4.566ZM130.533 19.576C129.975 19.5507 129.57 19.5127 129.317 19.462V20.146C129.342 20.906 129.367 21.5267 129.393 22.008C129.443 22.4893 129.608 22.958 129.887 23.414C130.191 23.9967 130.621 24.4273 131.179 24.706C131.736 24.9847 132.281 25.0733 132.813 24.972C133.345 24.8707 133.788 24.5667 134.143 24.06C134.523 23.528 134.687 22.7427 134.637 21.704C134.89 21.7293 135.232 21.742 135.663 21.742C136.093 21.7167 136.537 21.6913 136.993 21.666C137.474 21.6407 137.93 21.6407 138.361 21.666C138.791 21.666 139.146 21.704 139.425 21.78C139.374 22.4387 139.323 23.0847 139.273 23.718C139.222 24.3513 139.159 24.9467 139.083 25.504C139.007 26.036 138.905 26.5047 138.779 26.91C138.677 27.29 138.538 27.556 138.361 27.708C137.93 28.316 137.373 28.7467 136.689 29C136.005 29.2533 135.257 29.4053 134.447 29.456C133.636 29.5067 132.8 29.5067 131.939 29.456C131.103 29.4053 130.33 29.38 129.621 29.38C128.911 29.2787 128.253 29.0507 127.645 28.696C126.961 28.2147 126.391 27.594 125.935 26.834C125.479 26.0487 125.111 25.2 124.833 24.288C124.554 23.3507 124.364 22.3627 124.263 21.324C124.161 20.2853 124.136 19.2467 124.187 18.208C124.263 17.2707 124.339 16.3713 124.415 15.51C124.516 14.6233 124.719 13.762 125.023 12.926C125.352 12.1913 125.859 11.5707 126.543 11.064C127.227 10.532 127.999 10.1393 128.861 9.886C129.722 9.60733 130.634 9.45533 131.597 9.43C132.559 9.40467 133.497 9.506 134.409 9.734C135.574 9.93667 136.511 10.342 137.221 10.95C137.93 11.558 138.462 12.2927 138.817 13.154C139.197 14.0153 139.425 14.9653 139.501 16.004C139.577 17.0427 139.577 18.094 139.501 19.158C139.323 19.2087 138.981 19.2593 138.475 19.31C137.993 19.3607 137.411 19.4113 136.727 19.462C136.068 19.5127 135.359 19.5507 134.599 19.576C133.839 19.6013 133.104 19.614 132.395 19.614C131.711 19.614 131.09 19.6013 130.533 19.576ZM134.979 14.598C134.725 14.142 134.371 13.8 133.915 13.572C133.712 13.4453 133.509 13.3567 133.307 13.306C133.104 13.23 132.863 13.192 132.585 13.192C131.977 13.192 131.483 13.2553 131.103 13.382C130.723 13.5087 130.419 13.686 130.191 13.914C129.963 14.142 129.785 14.408 129.659 14.712C129.557 15.016 129.481 15.3327 129.431 15.662C129.38 15.9407 129.355 16.1433 129.355 16.27C129.38 16.3713 129.507 16.4473 129.735 16.498C129.963 16.5233 130.317 16.536 130.799 16.536C131.305 16.5107 132.04 16.498 133.003 16.498C133.661 16.498 134.155 16.5107 134.485 16.536C134.814 16.5613 135.042 16.574 135.169 16.574C135.321 16.5487 135.397 16.5107 135.397 16.46C135.397 16.384 135.397 16.2447 135.397 16.042C135.397 15.5353 135.257 15.054 134.979 14.598ZM153.011 19.272C153.011 19.5 153.011 19.7407 153.011 19.994V20.336C153.011 21.628 153.391 22.73 154.151 23.642C154.607 24.1993 155.215 24.5413 155.975 24.668C156.735 24.7693 157.444 24.7187 158.103 24.516C158.331 24.44 158.508 24.326 158.635 24.174C158.762 23.9967 158.863 23.8067 158.939 23.604C159.015 23.376 159.066 23.148 159.091 22.92C159.142 22.6667 159.18 22.426 159.205 22.198C159.205 21.1847 159.18 20.1587 159.129 19.12C159.104 18.056 158.964 17.0427 158.711 16.08C158.559 15.7 158.306 15.4087 157.951 15.206C157.622 14.978 157.254 14.8387 156.849 14.788C156.444 14.7373 156.038 14.7753 155.633 14.902C155.253 15.0033 154.911 15.1807 154.607 15.434C154.227 15.8647 153.898 16.346 153.619 16.878C153.366 17.3847 153.188 17.9293 153.087 18.512C153.036 18.7653 153.011 19.0187 153.011 19.272ZM160.573 36.448C160.218 36.524 159.889 36.5747 159.585 36.6C159.332 36.6507 158.876 36.6633 158.217 36.638C157.558 36.6127 156.71 36.6 155.671 36.6C154.48 36.6 153.416 36.3467 152.479 35.84C151.542 35.3333 150.782 34.6493 150.199 33.788C150.098 33.6107 149.996 33.37 149.895 33.066C149.819 32.7873 149.743 32.496 149.667 32.192C149.616 31.888 149.578 31.5967 149.553 31.318C149.553 31.0393 149.566 30.7987 149.591 30.596C149.844 30.4947 150.186 30.4187 150.617 30.368C151.048 30.3427 151.491 30.33 151.947 30.33C152.428 30.3553 152.884 30.3807 153.315 30.406C153.771 30.4567 154.151 30.5073 154.455 30.558C154.455 31.2167 154.658 31.736 155.063 32.116C155.494 32.5213 155.962 32.7493 156.469 32.8C157.001 32.8507 157.508 32.724 157.989 32.42C158.496 32.116 158.825 31.6093 158.977 30.9C159.002 30.6467 159.028 30.3807 159.053 30.102C159.078 29.8487 159.078 29.6207 159.053 29.418C159.002 28.9873 159.002 28.544 159.053 28.088C158.8 28.3667 158.496 28.5693 158.141 28.696C157.812 28.8227 157.444 28.9113 157.039 28.962C156.659 29.0127 156.266 29.038 155.861 29.038C155.456 29.038 155.076 29.0507 154.721 29.076C154.24 29.076 153.746 29.038 153.239 28.962C152.758 28.886 152.289 28.7593 151.833 28.582C151.402 28.4047 151.01 28.164 150.655 27.86C150.3 27.556 150.009 27.1633 149.781 26.682C149.426 25.998 149.173 25.2887 149.021 24.554C148.869 23.794 148.768 23.0213 148.717 22.236C148.717 21.0453 148.742 19.766 148.793 18.398C148.844 17.03 149.059 15.7507 149.439 14.56C149.844 13.344 150.478 12.3307 151.339 11.52C152.2 10.684 153.442 10.2153 155.063 10.114C155.874 10.0633 156.621 10.1773 157.305 10.456C158.014 10.7093 158.521 11.1907 158.825 11.9C158.926 11.9507 158.977 11.9127 158.977 11.786C159.002 11.634 159.002 11.4567 158.977 11.254C158.977 11.026 158.964 10.8107 158.939 10.608C158.939 10.38 158.977 10.2027 159.053 10.076C159.889 9.97467 160.738 9.94933 161.599 10C162.46 10.0253 163.322 10.038 164.183 10.038C164.284 13.2047 164.335 16.5233 164.335 19.994C164.36 23.4393 164.297 26.986 164.145 30.634C164.12 31.242 164.12 31.8373 164.145 32.42C164.17 33.028 164.056 33.5347 163.803 33.94C163.448 34.4973 163.081 34.9407 162.701 35.27C162.346 35.5993 161.992 35.8527 161.637 36.03C161.282 36.2327 160.928 36.372 160.573 36.448ZM180.135 9.962C180.768 9.98733 181.49 10.0253 182.301 10.076C182.326 10.228 182.339 10.38 182.339 10.532C182.364 10.684 182.377 10.836 182.377 10.988V11.368C182.301 14.104 182.314 16.802 182.415 19.462C182.516 22.0967 182.478 24.7693 182.301 27.48C182.301 27.8093 182.288 28.1387 182.263 28.468C182.263 28.7973 182.111 28.9873 181.807 29.038H181.351C180.946 29.038 180.528 29.0253 180.097 29C179.692 28.9493 179.286 28.924 178.881 28.924C178.602 28.924 178.324 28.9493 178.045 29C177.792 29.0253 177.526 29.038 177.247 29.038C177.07 28.9873 176.943 28.886 176.867 28.734C176.816 28.582 176.791 28.4047 176.791 28.202C176.791 27.9233 176.816 27.6953 176.867 27.518C176.918 27.3407 176.943 27.1253 176.943 26.872C176.335 27.48 175.562 27.9993 174.625 28.43C173.713 28.8607 172.814 29.076 171.927 29.076C170.939 29.076 170.09 28.734 169.381 28.05C168.697 27.366 168.127 26.5173 167.671 25.504C167.215 24.4907 166.873 23.3887 166.645 22.198C166.442 21.0073 166.341 19.9053 166.341 18.892C166.341 17.6253 166.506 16.46 166.835 15.396C167.164 14.332 167.608 13.42 168.165 12.66C168.748 11.8747 169.432 11.2667 170.217 10.836C171.002 10.38 171.838 10.1393 172.725 10.114C173.181 10.114 173.599 10.1267 173.979 10.152C174.384 10.152 174.752 10.2153 175.081 10.342C175.41 10.4433 175.702 10.6207 175.955 10.874C176.208 11.102 176.424 11.4313 176.601 11.862C176.576 11.4567 176.588 11.1147 176.639 10.836C176.715 10.532 176.753 10.228 176.753 9.924C176.753 9.89867 176.829 9.886 176.981 9.886C177.158 9.86067 177.348 9.86067 177.551 9.886C177.754 9.886 177.956 9.886 178.159 9.886C178.362 9.886 178.501 9.886 178.577 9.886C179.008 9.91133 179.527 9.93667 180.135 9.962ZM172.307 15.966C171.724 16.4473 171.37 17.0047 171.243 17.638C171.142 17.9673 171.078 18.3093 171.053 18.664C171.028 18.9933 171.015 19.3227 171.015 19.652C171.015 20.792 171.306 21.7673 171.889 22.578C172.497 23.3633 173.333 23.756 174.397 23.756C175.03 23.756 175.499 23.6547 175.803 23.452C176.132 23.224 176.36 22.92 176.487 22.54C176.639 22.1347 176.715 21.6533 176.715 21.096C176.74 20.5133 176.753 19.8673 176.753 19.158C176.753 18.2713 176.74 17.5747 176.715 17.068C176.715 16.536 176.652 16.1307 176.525 15.852C176.424 15.5733 176.234 15.396 175.955 15.32C175.702 15.244 175.309 15.206 174.777 15.206C173.738 15.206 172.915 15.4593 172.307 15.966ZM190.037 11.102C190.037 11.3807 190.05 11.6973 190.075 12.052C190.202 11.976 190.354 11.8873 190.531 11.786C190.734 11.6847 190.899 11.5833 191.025 11.482C191.557 11.102 192.153 10.798 192.811 10.57C193.47 10.342 194.141 10.2153 194.825 10.19C195.535 10.1647 196.219 10.2407 196.877 10.418C197.536 10.5953 198.131 10.912 198.663 11.368C198.79 11.4947 198.917 11.71 199.043 12.014C199.17 11.938 199.322 11.862 199.499 11.786C199.677 11.6847 199.829 11.5833 199.955 11.482C200.487 11.102 201.083 10.798 201.741 10.57C202.4 10.342 203.071 10.2153 203.755 10.19C204.465 10.1647 205.149 10.2407 205.807 10.418C206.466 10.5953 207.061 10.912 207.593 11.368C207.847 11.596 208.037 12.0773 208.163 12.812C208.315 13.5213 208.404 14.3827 208.429 15.396C208.48 16.4093 208.493 17.524 208.467 18.74C208.467 19.9307 208.455 21.1467 208.429 22.388C208.404 23.604 208.379 24.782 208.353 25.922C208.328 27.062 208.341 28.0627 208.391 28.924C207.505 29.0507 206.707 29.1013 205.997 29.076C205.313 29.076 204.528 29.076 203.641 29.076C203.591 28.4933 203.565 27.8347 203.565 27.1C203.565 26.3653 203.565 25.6053 203.565 24.82C203.591 24.0347 203.591 23.2493 203.565 22.464C203.565 21.6787 203.54 20.944 203.489 20.26C203.464 19.956 203.439 19.6267 203.413 19.272C203.388 18.892 203.337 18.5247 203.261 18.17C203.211 17.8153 203.122 17.4987 202.995 17.22C202.894 16.9413 202.742 16.726 202.539 16.574C202.514 16.5487 202.489 16.536 202.463 16.536C202.438 16.536 202.413 16.5233 202.387 16.498C202.235 16.422 202.045 16.3587 201.817 16.308C201.589 16.2573 201.336 16.232 201.057 16.232C200.804 16.232 200.538 16.2827 200.259 16.384C200.006 16.46 199.765 16.5867 199.537 16.764C199.563 17.752 199.563 18.8033 199.537 19.918C199.512 21.0073 199.487 22.0967 199.461 23.186C199.436 24.25 199.411 25.2887 199.385 26.302C199.385 27.29 199.411 28.164 199.461 28.924C198.575 29.0507 197.777 29.1013 197.067 29.076C196.383 29.076 195.598 29.076 194.711 29.076C194.661 28.4933 194.635 27.8347 194.635 27.1C194.635 26.3653 194.635 25.6053 194.635 24.82C194.661 24.0347 194.661 23.2493 194.635 22.464C194.635 21.6787 194.61 20.944 194.559 20.26C194.534 19.956 194.509 19.6267 194.483 19.272C194.458 18.892 194.407 18.5247 194.331 18.17C194.281 17.8153 194.192 17.4987 194.065 17.22C193.964 16.9413 193.812 16.726 193.609 16.574C193.584 16.5487 193.559 16.536 193.533 16.536C193.508 16.536 193.483 16.5233 193.457 16.498C193.255 16.3967 192.951 16.3207 192.545 16.27C192.165 16.194 191.785 16.2193 191.405 16.346C191.025 16.4473 190.683 16.6753 190.379 17.03C190.075 17.3593 189.898 17.866 189.847 18.55C189.797 19.4367 189.784 20.3107 189.809 21.172C189.835 22.008 189.86 22.8567 189.885 23.718C189.936 24.554 189.961 25.39 189.961 26.226C189.961 27.062 189.911 27.898 189.809 28.734V28.886C189.379 29.0127 188.999 29.0887 188.669 29.114C188.365 29.1393 188.049 29.1393 187.719 29.114C187.39 29.114 187.023 29.1013 186.617 29.076C186.212 29.0507 185.705 29.0633 185.097 29.114C185.097 25.998 185.059 22.882 184.983 19.766C184.933 16.65 184.958 13.42 185.059 10.076C185.363 10.1013 185.617 10.1267 185.819 10.152C186.022 10.152 186.212 10.152 186.389 10.152C186.567 10.152 186.757 10.152 186.959 10.152C187.162 10.1267 187.415 10.1013 187.719 10.076C187.821 10.076 187.998 10.0633 188.251 10.038C188.505 9.98733 188.758 9.94933 189.011 9.924C189.265 9.89867 189.493 9.89867 189.695 9.924C189.898 9.924 189.999 9.962 189.999 10.038C190.05 10.4687 190.063 10.8233 190.037 11.102ZM216.812 19.576C216.255 19.5507 215.849 19.5127 215.596 19.462V20.146C215.621 20.906 215.647 21.5267 215.672 22.008C215.723 22.4893 215.887 22.958 216.166 23.414C216.47 23.9967 216.901 24.4273 217.458 24.706C218.015 24.9847 218.56 25.0733 219.092 24.972C219.624 24.8707 220.067 24.5667 220.422 24.06C220.802 23.528 220.967 22.7427 220.916 21.704C221.169 21.7293 221.511 21.742 221.942 21.742C222.373 21.7167 222.816 21.6913 223.272 21.666C223.753 21.6407 224.209 21.6407 224.64 21.666C225.071 21.666 225.425 21.704 225.704 21.78C225.653 22.4387 225.603 23.0847 225.552 23.718C225.501 24.3513 225.438 24.9467 225.362 25.504C225.286 26.036 225.185 26.5047 225.058 26.91C224.957 27.29 224.817 27.556 224.64 27.708C224.209 28.316 223.652 28.7467 222.968 29C222.284 29.2533 221.537 29.4053 220.726 29.456C219.915 29.5067 219.079 29.5067 218.218 29.456C217.382 29.4053 216.609 29.38 215.9 29.38C215.191 29.2787 214.532 29.0507 213.924 28.696C213.24 28.2147 212.67 27.594 212.214 26.834C211.758 26.0487 211.391 25.2 211.112 24.288C210.833 23.3507 210.643 22.3627 210.542 21.324C210.441 20.2853 210.415 19.2467 210.466 18.208C210.542 17.2707 210.618 16.3713 210.694 15.51C210.795 14.6233 210.998 13.762 211.302 12.926C211.631 12.1913 212.138 11.5707 212.822 11.064C213.506 10.532 214.279 10.1393 215.14 9.886C216.001 9.60733 216.913 9.45533 217.876 9.43C218.839 9.40467 219.776 9.506 220.688 9.734C221.853 9.93667 222.791 10.342 223.5 10.95C224.209 11.558 224.741 12.2927 225.096 13.154C225.476 14.0153 225.704 14.9653 225.78 16.004C225.856 17.0427 225.856 18.094 225.78 19.158C225.603 19.2087 225.261 19.2593 224.754 19.31C224.273 19.3607 223.69 19.4113 223.006 19.462C222.347 19.5127 221.638 19.5507 220.878 19.576C220.118 19.6013 219.383 19.614 218.674 19.614C217.99 19.614 217.369 19.6013 216.812 19.576ZM221.258 14.598C221.005 14.142 220.65 13.8 220.194 13.572C219.991 13.4453 219.789 13.3567 219.586 13.306C219.383 13.23 219.143 13.192 218.864 13.192C218.256 13.192 217.762 13.2553 217.382 13.382C217.002 13.5087 216.698 13.686 216.47 13.914C216.242 14.142 216.065 14.408 215.938 14.712C215.837 15.016 215.761 15.3327 215.71 15.662C215.659 15.9407 215.634 16.1433 215.634 16.27C215.659 16.3713 215.786 16.4473 216.014 16.498C216.242 16.5233 216.597 16.536 217.078 16.536C217.585 16.5107 218.319 16.498 219.282 16.498C219.941 16.498 220.435 16.5107 220.764 16.536C221.093 16.5613 221.321 16.574 221.448 16.574C221.6 16.5487 221.676 16.5107 221.676 16.46C221.676 16.384 221.676 16.2447 221.676 16.042C221.676 15.5353 221.537 15.054 221.258 14.598Z" fill="white"/>
</svg>
