<svg width="171" height="38" viewBox="0 0 171 38" fill="none" xmlns="http://www.w3.org/2000/svg">
<path d="M35 9C40.523 9 45 13.477 45 19C45.0013 20.5526 44.6405 22.0841 43.9463 23.4728C43.2521 24.8615 42.2436 26.0692 41.001 27H43C43.2652 27 43.5196 27.1054 43.7071 27.2929C43.8946 27.4804 44 27.7348 44 28C44 28.2652 43.8946 28.5196 43.7071 28.7071C43.5196 28.8946 43.2652 29 43 29H35C29.477 29 25 24.523 25 19C25 13.477 29.477 9 35 9ZM35 21C34.4696 21 33.9609 21.2107 33.5858 21.5858C33.2107 21.9609 33 22.4696 33 23C33 23.5304 33.2107 24.0391 33.5858 24.4142C33.9609 24.7893 34.4696 25 35 25C35.5304 25 36.0391 24.7893 36.4142 24.4142C36.7893 24.0391 37 23.5304 37 23C37 22.4696 36.7893 21.9609 36.4142 21.5858C36.0391 21.2107 35.5304 21 35 21ZM31 17C30.4696 17 29.9609 17.2107 29.5858 17.5858C29.2107 17.9609 29 18.4696 29 19C29 19.5304 29.2107 20.0391 29.5858 20.4142C29.9609 20.7893 30.4696 21 31 21C31.5304 21 32.0391 20.7893 32.4142 20.4142C32.7893 20.0391 33 19.5304 33 19C33 18.4696 32.7893 17.9609 32.4142 17.5858C32.0391 17.2107 31.5304 17 31 17ZM39 17C38.4696 17 37.9609 17.2107 37.5858 17.5858C37.2107 17.9609 37 18.4696 37 19C37 19.5304 37.2107 20.0391 37.5858 20.4142C37.9609 20.7893 38.4696 21 39 21C39.5304 21 40.0391 20.7893 40.4142 20.4142C40.7893 20.0391 41 19.5304 41 19C41 18.4696 40.7893 17.9609 40.4142 17.5858C40.0391 17.2107 39.5304 17 39 17ZM35 13C34.4696 13 33.9609 13.2107 33.5858 13.5858C33.2107 13.9609 33 14.4696 33 15C33 15.5304 33.2107 16.0391 33.5858 16.4142C33.9609 16.7893 34.4696 17 35 17C35.5304 17 36.0391 16.7893 36.4142 16.4142C36.7893 16.0391 37 15.5304 37 15C37 14.4696 36.7893 13.9609 36.4142 13.5858C36.0391 13.2107 35.5304 13 35 13Z" fill="white"/>
<path d="M6.346 11.102C6.346 11.3807 6.35867 11.6973 6.384 12.052C6.51067 11.976 6.66267 11.8873 6.84 11.786C7.04267 11.6847 7.20733 11.5833 7.334 11.482C7.866 11.102 8.46133 10.798 9.12 10.57C9.77867 10.342 10.45 10.2153 11.134 10.19C11.8433 10.1647 12.5273 10.2407 13.186 10.418C13.8447 10.5953 14.44 10.912 14.972 11.368C15.0987 11.4947 15.2253 11.71 15.352 12.014C15.4787 11.938 15.6307 11.862 15.808 11.786C15.9853 11.6847 16.1373 11.5833 16.264 11.482C16.796 11.102 17.3913 10.798 18.05 10.57C18.7087 10.342 19.38 10.2153 20.064 10.19C20.7733 10.1647 21.4573 10.2407 22.116 10.418C22.7747 10.5953 23.37 10.912 23.902 11.368C24.1553 11.596 24.3453 12.0773 24.472 12.812C24.624 13.5213 24.7127 14.3827 24.738 15.396C24.7887 16.4093 24.8013 17.524 24.776 18.74C24.776 19.9307 24.7633 21.1467 24.738 22.388C24.7127 23.604 24.6873 24.782 24.662 25.922C24.6367 27.062 24.6493 28.0627 24.7 28.924C23.8133 29.0507 23.0153 29.1013 22.306 29.076C21.622 29.076 20.8367 29.076 19.95 29.076C19.8993 28.4933 19.874 27.8347 19.874 27.1C19.874 26.3653 19.874 25.6053 19.874 24.82C19.8993 24.0347 19.8993 23.2493 19.874 22.464C19.874 21.6787 19.8487 20.944 19.798 20.26C19.7727 19.956 19.7473 19.6267 19.722 19.272C19.6967 18.892 19.646 18.5247 19.57 18.17C19.5193 17.8153 19.4307 17.4987 19.304 17.22C19.2027 16.9413 19.0507 16.726 18.848 16.574C18.8227 16.5487 18.7973 16.536 18.772 16.536C18.7467 16.536 18.7213 16.5233 18.696 16.498C18.544 16.422 18.354 16.3587 18.126 16.308C17.898 16.2573 17.6447 16.232 17.366 16.232C17.1127 16.232 16.8467 16.2827 16.568 16.384C16.3147 16.46 16.074 16.5867 15.846 16.764C15.8713 17.752 15.8713 18.8033 15.846 19.918C15.8207 21.0073 15.7953 22.0967 15.77 23.186C15.7447 24.25 15.7193 25.2887 15.694 26.302C15.694 27.29 15.7193 28.164 15.77 28.924C14.8833 29.0507 14.0853 29.1013 13.376 29.076C12.692 29.076 11.9067 29.076 11.02 29.076C10.9693 28.4933 10.944 27.8347 10.944 27.1C10.944 26.3653 10.944 25.6053 10.944 24.82C10.9693 24.0347 10.9693 23.2493 10.944 22.464C10.944 21.6787 10.9187 20.944 10.868 20.26C10.8427 19.956 10.8173 19.6267 10.792 19.272C10.7667 18.892 10.716 18.5247 10.64 18.17C10.5893 17.8153 10.5007 17.4987 10.374 17.22C10.2727 16.9413 10.1207 16.726 9.918 16.574C9.89267 16.5487 9.86733 16.536 9.842 16.536C9.81667 16.536 9.79133 16.5233 9.766 16.498C9.56333 16.3967 9.25933 16.3207 8.854 16.27C8.474 16.194 8.094 16.2193 7.714 16.346C7.334 16.4473 6.992 16.6753 6.688 17.03C6.384 17.3593 6.20667 17.866 6.156 18.55C6.10533 19.4367 6.09267 20.3107 6.118 21.172C6.14333 22.008 6.16867 22.8567 6.194 23.718C6.24467 24.554 6.27 25.39 6.27 26.226C6.27 27.062 6.21933 27.898 6.118 28.734V28.886C5.68733 29.0127 5.30733 29.0887 4.978 29.114C4.674 29.1393 4.35733 29.1393 4.028 29.114C3.69867 29.114 3.33133 29.1013 2.926 29.076C2.52067 29.0507 2.014 29.0633 1.406 29.114C1.406 25.998 1.368 22.882 1.292 19.766C1.24133 16.65 1.26667 13.42 1.368 10.076C1.672 10.1013 1.92533 10.1267 2.128 10.152C2.33067 10.152 2.52067 10.152 2.698 10.152C2.87533 10.152 3.06533 10.152 3.268 10.152C3.47067 10.1267 3.724 10.1013 4.028 10.076C4.12933 10.076 4.30667 10.0633 4.56 10.038C4.81333 9.98733 5.06667 9.94933 5.32 9.924C5.57333 9.89867 5.80133 9.89867 6.004 9.924C6.20667 9.924 6.308 9.962 6.308 10.038C6.35867 10.4687 6.37133 10.8233 6.346 11.102ZM46.1258 10.076C47.0378 10 47.8991 10.0127 48.7098 10.114C48.8871 11.026 49.0644 12.0773 49.2418 13.268C49.4191 14.4333 49.6091 15.624 49.8118 16.84C50.0144 18.056 50.2298 19.2213 50.4578 20.336C50.6858 21.4253 50.9391 22.35 51.2178 23.11C51.4964 22.35 51.7498 21.4 51.9778 20.26C52.2058 19.0947 52.4211 17.8913 52.6238 16.65C52.8518 15.4087 53.0924 14.2053 53.3458 13.04C53.5991 11.8747 53.8778 10.912 54.1818 10.152C54.6124 10.152 55.0178 10.1393 55.3978 10.114C55.7778 10.0887 56.1704 10.0633 56.5758 10.038C56.9811 10.0127 57.3991 10 57.8298 10C58.2604 10 58.7418 10.0127 59.2738 10.038C58.7418 11.482 58.2731 12.9893 57.8678 14.56C57.4878 16.1053 57.1204 17.6887 56.7658 19.31C56.4111 20.9313 56.0564 22.5653 55.7018 24.212C55.3471 25.8333 54.9544 27.442 54.5238 29.038C54.0171 29.114 53.4471 29.152 52.8138 29.152C52.2058 29.1773 51.5724 29.1773 50.9138 29.152C50.2804 29.152 49.6471 29.1393 49.0138 29.114C48.4058 29.114 47.8611 29.114 47.3798 29.114C46.8731 25.9473 46.2904 22.7173 45.6318 19.424C44.9731 16.1307 44.2384 12.9893 43.4278 10C44.3398 10.1013 45.2391 10.1267 46.1258 10.076ZM63.2148 9.886C63.7974 9.91133 64.4941 9.91133 65.3048 9.886H65.9508V10C65.9254 13.0653 65.8621 16.194 65.7608 19.386C65.6848 22.578 65.7354 25.7067 65.9128 28.772C65.7861 28.924 65.4694 29 64.9628 29C64.4561 29.0253 63.8988 29.0253 63.2908 29C62.7081 29 62.1508 28.9873 61.6188 28.962C61.0868 28.9367 60.7321 28.9493 60.5548 29C60.6814 27.404 60.7321 25.7827 60.7068 24.136C60.7068 22.4893 60.6814 20.8553 60.6308 19.234C60.5801 17.6127 60.5548 16.0167 60.5548 14.446C60.5548 12.85 60.6308 11.3047 60.7828 9.81V9.772C60.8841 9.74667 61.0488 9.74667 61.2768 9.772C61.5301 9.79733 61.7201 9.81 61.8468 9.81C62.1761 9.83533 62.6321 9.86067 63.2148 9.886ZM60.6688 4.566C60.6181 3.75533 60.6054 2.76733 60.6308 1.602L65.7988 1.716C65.7988 1.868 65.7988 2.14667 65.7988 2.552C65.8241 2.932 65.8368 3.36266 65.8368 3.844C65.8621 4.3 65.8748 4.78133 65.8748 5.288C65.9001 5.76933 65.9128 6.2 65.9128 6.58C65.8114 6.732 65.5708 6.83333 65.1908 6.884C64.8361 6.93467 64.4054 6.96 63.8988 6.96C63.4174 6.93467 62.8981 6.90933 62.3408 6.884C61.7834 6.83333 61.2641 6.82067 60.7828 6.846C60.7828 6.11133 60.7448 5.35133 60.6688 4.566ZM74.312 19.576C73.7546 19.5507 73.3493 19.5127 73.096 19.462V20.146C73.1213 20.906 73.1466 21.5267 73.172 22.008C73.2226 22.4893 73.3873 22.958 73.666 23.414C73.97 23.9967 74.4006 24.4273 74.958 24.706C75.5153 24.9847 76.06 25.0733 76.592 24.972C77.124 24.8707 77.5673 24.5667 77.922 24.06C78.302 23.528 78.4666 22.7427 78.416 21.704C78.6693 21.7293 79.0113 21.742 79.442 21.742C79.8726 21.7167 80.316 21.6913 80.772 21.666C81.2533 21.6407 81.7093 21.6407 82.14 21.666C82.5706 21.666 82.9253 21.704 83.204 21.78C83.1533 22.4387 83.1026 23.0847 83.052 23.718C83.0013 24.3513 82.938 24.9467 82.862 25.504C82.786 26.036 82.6846 26.5047 82.558 26.91C82.4566 27.29 82.3173 27.556 82.14 27.708C81.7093 28.316 81.152 28.7467 80.468 29C79.784 29.2533 79.0366 29.4053 78.226 29.456C77.4153 29.5067 76.5793 29.5067 75.718 29.456C74.882 29.4053 74.1093 29.38 73.4 29.38C72.6906 29.2787 72.032 29.0507 71.424 28.696C70.74 28.2147 70.17 27.594 69.714 26.834C69.258 26.0487 68.8906 25.2 68.612 24.288C68.3333 23.3507 68.1433 22.3627 68.042 21.324C67.9406 20.2853 67.9153 19.2467 67.966 18.208C68.042 17.2707 68.118 16.3713 68.194 15.51C68.2953 14.6233 68.498 13.762 68.802 12.926C69.1313 12.1913 69.638 11.5707 70.322 11.064C71.006 10.532 71.7786 10.1393 72.64 9.886C73.5013 9.60733 74.4133 9.45533 75.376 9.43C76.3386 9.40467 77.276 9.506 78.188 9.734C79.3533 9.93667 80.2906 10.342 81 10.95C81.7093 11.558 82.2413 12.2927 82.596 13.154C82.976 14.0153 83.204 14.9653 83.28 16.004C83.356 17.0427 83.356 18.094 83.28 19.158C83.1026 19.2087 82.7606 19.2593 82.254 19.31C81.7726 19.3607 81.19 19.4113 80.506 19.462C79.8473 19.5127 79.138 19.5507 78.378 19.576C77.618 19.6013 76.8833 19.614 76.174 19.614C75.49 19.614 74.8693 19.6013 74.312 19.576ZM78.758 14.598C78.5046 14.142 78.15 13.8 77.694 13.572C77.4913 13.4453 77.2886 13.3567 77.086 13.306C76.8833 13.23 76.6426 13.192 76.364 13.192C75.756 13.192 75.262 13.2553 74.882 13.382C74.502 13.5087 74.198 13.686 73.97 13.914C73.742 14.142 73.5646 14.408 73.438 14.712C73.3366 15.016 73.2606 15.3327 73.21 15.662C73.1593 15.9407 73.134 16.1433 73.134 16.27C73.1593 16.3713 73.286 16.4473 73.514 16.498C73.742 16.5233 74.0966 16.536 74.578 16.536C75.0846 16.5107 75.8193 16.498 76.782 16.498C77.4406 16.498 77.9346 16.5107 78.264 16.536C78.5933 16.5613 78.8213 16.574 78.948 16.574C79.1 16.5487 79.176 16.5107 79.176 16.46C79.176 16.384 79.176 16.2447 79.176 16.042C79.176 15.5353 79.0366 15.054 78.758 14.598ZM96.7902 19.272C96.7902 19.5 96.7902 19.7407 96.7902 19.994V20.336C96.7902 21.628 97.1702 22.73 97.9302 23.642C98.3862 24.1993 98.9942 24.5413 99.7542 24.668C100.514 24.7693 101.223 24.7187 101.882 24.516C102.11 24.44 102.287 24.326 102.414 24.174C102.541 23.9967 102.642 23.8067 102.718 23.604C102.794 23.376 102.845 23.148 102.87 22.92C102.921 22.6667 102.959 22.426 102.984 22.198C102.984 21.1847 102.959 20.1587 102.908 19.12C102.883 18.056 102.743 17.0427 102.49 16.08C102.338 15.7 102.085 15.4087 101.73 15.206C101.401 14.978 101.033 14.8387 100.628 14.788C100.223 14.7373 99.8175 14.7753 99.4122 14.902C99.0322 15.0033 98.6902 15.1807 98.3862 15.434C98.0062 15.8647 97.6768 16.346 97.3982 16.878C97.1448 17.3847 96.9675 17.9293 96.8662 18.512C96.8155 18.7653 96.7902 19.0187 96.7902 19.272ZM104.352 36.448C103.997 36.524 103.668 36.5747 103.364 36.6C103.111 36.6507 102.655 36.6633 101.996 36.638C101.337 36.6127 100.489 36.6 99.4502 36.6C98.2595 36.6 97.1955 36.3467 96.2582 35.84C95.3208 35.3333 94.5608 34.6493 93.9782 33.788C93.8768 33.6107 93.7755 33.37 93.6742 33.066C93.5982 32.7873 93.5222 32.496 93.4462 32.192C93.3955 31.888 93.3575 31.5967 93.3322 31.318C93.3322 31.0393 93.3448 30.7987 93.3702 30.596C93.6235 30.4947 93.9655 30.4187 94.3962 30.368C94.8268 30.3427 95.2702 30.33 95.7262 30.33C96.2075 30.3553 96.6635 30.3807 97.0942 30.406C97.5502 30.4567 97.9302 30.5073 98.2342 30.558C98.2342 31.2167 98.4368 31.736 98.8422 32.116C99.2728 32.5213 99.7415 32.7493 100.248 32.8C100.78 32.8507 101.287 32.724 101.768 32.42C102.275 32.116 102.604 31.6093 102.756 30.9C102.781 30.6467 102.807 30.3807 102.832 30.102C102.857 29.8487 102.857 29.6207 102.832 29.418C102.781 28.9873 102.781 28.544 102.832 28.088C102.579 28.3667 102.275 28.5693 101.92 28.696C101.591 28.8227 101.223 28.9113 100.818 28.962C100.438 29.0127 100.045 29.038 99.6402 29.038C99.2348 29.038 98.8548 29.0507 98.5002 29.076C98.0188 29.076 97.5248 29.038 97.0182 28.962C96.5368 28.886 96.0682 28.7593 95.6122 28.582C95.1815 28.4047 94.7888 28.164 94.4342 27.86C94.0795 27.556 93.7882 27.1633 93.5602 26.682C93.2055 25.998 92.9522 25.2887 92.8002 24.554C92.6482 23.794 92.5468 23.0213 92.4962 22.236C92.4962 21.0453 92.5215 19.766 92.5722 18.398C92.6228 17.03 92.8382 15.7507 93.2182 14.56C93.6235 13.344 94.2568 12.3307 95.1182 11.52C95.9795 10.684 97.2208 10.2153 98.8422 10.114C99.6528 10.0633 100.4 10.1773 101.084 10.456C101.793 10.7093 102.3 11.1907 102.604 11.9C102.705 11.9507 102.756 11.9127 102.756 11.786C102.781 11.634 102.781 11.4567 102.756 11.254C102.756 11.026 102.743 10.8107 102.718 10.608C102.718 10.38 102.756 10.2027 102.832 10.076C103.668 9.97467 104.517 9.94933 105.378 10C106.239 10.0253 107.101 10.038 107.962 10.038C108.063 13.2047 108.114 16.5233 108.114 19.994C108.139 23.4393 108.076 26.986 107.924 30.634C107.899 31.242 107.899 31.8373 107.924 32.42C107.949 33.028 107.835 33.5347 107.582 33.94C107.227 34.4973 106.86 34.9407 106.48 35.27C106.125 35.5993 105.771 35.8527 105.416 36.03C105.061 36.2327 104.707 36.372 104.352 36.448ZM123.914 9.962C124.548 9.98733 125.27 10.0253 126.08 10.076C126.106 10.228 126.118 10.38 126.118 10.532C126.144 10.684 126.156 10.836 126.156 10.988V11.368C126.08 14.104 126.093 16.802 126.194 19.462C126.296 22.0967 126.258 24.7693 126.08 27.48C126.08 27.8093 126.068 28.1387 126.042 28.468C126.042 28.7973 125.89 28.9873 125.586 29.038H125.13C124.725 29.038 124.307 29.0253 123.876 29C123.471 28.9493 123.066 28.924 122.66 28.924C122.382 28.924 122.103 28.9493 121.824 29C121.571 29.0253 121.305 29.038 121.026 29.038C120.849 28.9873 120.722 28.886 120.646 28.734C120.596 28.582 120.57 28.4047 120.57 28.202C120.57 27.9233 120.596 27.6953 120.646 27.518C120.697 27.3407 120.722 27.1253 120.722 26.872C120.114 27.48 119.342 27.9993 118.404 28.43C117.492 28.8607 116.593 29.076 115.706 29.076C114.718 29.076 113.87 28.734 113.16 28.05C112.476 27.366 111.906 26.5173 111.45 25.504C110.994 24.4907 110.652 23.3887 110.424 22.198C110.222 21.0073 110.12 19.9053 110.12 18.892C110.12 17.6253 110.285 16.46 110.614 15.396C110.944 14.332 111.387 13.42 111.944 12.66C112.527 11.8747 113.211 11.2667 113.996 10.836C114.782 10.38 115.618 10.1393 116.504 10.114C116.96 10.114 117.378 10.1267 117.758 10.152C118.164 10.152 118.531 10.2153 118.86 10.342C119.19 10.4433 119.481 10.6207 119.734 10.874C119.988 11.102 120.203 11.4313 120.38 11.862C120.355 11.4567 120.368 11.1147 120.418 10.836C120.494 10.532 120.532 10.228 120.532 9.924C120.532 9.89867 120.608 9.886 120.76 9.886C120.938 9.86067 121.128 9.86067 121.33 9.886C121.533 9.886 121.736 9.886 121.938 9.886C122.141 9.886 122.28 9.886 122.356 9.886C122.787 9.91133 123.306 9.93667 123.914 9.962ZM116.086 15.966C115.504 16.4473 115.149 17.0047 115.022 17.638C114.921 17.9673 114.858 18.3093 114.832 18.664C114.807 18.9933 114.794 19.3227 114.794 19.652C114.794 20.792 115.086 21.7673 115.668 22.578C116.276 23.3633 117.112 23.756 118.176 23.756C118.81 23.756 119.278 23.6547 119.582 23.452C119.912 23.224 120.14 22.92 120.266 22.54C120.418 22.1347 120.494 21.6533 120.494 21.096C120.52 20.5133 120.532 19.8673 120.532 19.158C120.532 18.2713 120.52 17.5747 120.494 17.068C120.494 16.536 120.431 16.1307 120.304 15.852C120.203 15.5733 120.013 15.396 119.734 15.32C119.481 15.244 119.088 15.206 118.556 15.206C117.518 15.206 116.694 15.4593 116.086 15.966ZM133.817 11.102C133.817 11.3807 133.829 11.6973 133.855 12.052C133.981 11.976 134.133 11.8873 134.311 11.786C134.513 11.6847 134.678 11.5833 134.805 11.482C135.337 11.102 135.932 10.798 136.591 10.57C137.249 10.342 137.921 10.2153 138.605 10.19C139.314 10.1647 139.998 10.2407 140.657 10.418C141.315 10.5953 141.911 10.912 142.443 11.368C142.569 11.4947 142.696 11.71 142.823 12.014C142.949 11.938 143.101 11.862 143.279 11.786C143.456 11.6847 143.608 11.5833 143.735 11.482C144.267 11.102 144.862 10.798 145.521 10.57C146.179 10.342 146.851 10.2153 147.535 10.19C148.244 10.1647 148.928 10.2407 149.587 10.418C150.245 10.5953 150.841 10.912 151.373 11.368C151.626 11.596 151.816 12.0773 151.943 12.812C152.095 13.5213 152.183 14.3827 152.209 15.396C152.259 16.4093 152.272 17.524 152.247 18.74C152.247 19.9307 152.234 21.1467 152.209 22.388C152.183 23.604 152.158 24.782 152.133 25.922C152.107 27.062 152.12 28.0627 152.171 28.924C151.284 29.0507 150.486 29.1013 149.777 29.076C149.093 29.076 148.307 29.076 147.421 29.076C147.37 28.4933 147.345 27.8347 147.345 27.1C147.345 26.3653 147.345 25.6053 147.345 24.82C147.37 24.0347 147.37 23.2493 147.345 22.464C147.345 21.6787 147.319 20.944 147.269 20.26C147.243 19.956 147.218 19.6267 147.193 19.272C147.167 18.892 147.117 18.5247 147.041 18.17C146.99 17.8153 146.901 17.4987 146.775 17.22C146.673 16.9413 146.521 16.726 146.319 16.574C146.293 16.5487 146.268 16.536 146.243 16.536C146.217 16.536 146.192 16.5233 146.167 16.498C146.015 16.422 145.825 16.3587 145.597 16.308C145.369 16.2573 145.115 16.232 144.837 16.232C144.583 16.232 144.317 16.2827 144.039 16.384C143.785 16.46 143.545 16.5867 143.317 16.764C143.342 17.752 143.342 18.8033 143.317 19.918C143.291 21.0073 143.266 22.0967 143.241 23.186C143.215 24.25 143.19 25.2887 143.165 26.302C143.165 27.29 143.19 28.164 143.241 28.924C142.354 29.0507 141.556 29.1013 140.847 29.076C140.163 29.076 139.377 29.076 138.491 29.076C138.44 28.4933 138.415 27.8347 138.415 27.1C138.415 26.3653 138.415 25.6053 138.415 24.82C138.44 24.0347 138.44 23.2493 138.415 22.464C138.415 21.6787 138.389 20.944 138.339 20.26C138.313 19.956 138.288 19.6267 138.263 19.272C138.237 18.892 138.187 18.5247 138.111 18.17C138.06 17.8153 137.971 17.4987 137.845 17.22C137.743 16.9413 137.591 16.726 137.389 16.574C137.363 16.5487 137.338 16.536 137.313 16.536C137.287 16.536 137.262 16.5233 137.237 16.498C137.034 16.3967 136.73 16.3207 136.325 16.27C135.945 16.194 135.565 16.2193 135.185 16.346C134.805 16.4473 134.463 16.6753 134.159 17.03C133.855 17.3593 133.677 17.866 133.627 18.55C133.576 19.4367 133.563 20.3107 133.589 21.172C133.614 22.008 133.639 22.8567 133.665 23.718C133.715 24.554 133.741 25.39 133.741 26.226C133.741 27.062 133.69 27.898 133.589 28.734V28.886C133.158 29.0127 132.778 29.0887 132.449 29.114C132.145 29.1393 131.828 29.1393 131.499 29.114C131.169 29.114 130.802 29.1013 130.397 29.076C129.991 29.0507 129.485 29.0633 128.877 29.114C128.877 25.998 128.839 22.882 128.763 19.766C128.712 16.65 128.737 13.42 128.839 10.076C129.143 10.1013 129.396 10.1267 129.599 10.152C129.801 10.152 129.991 10.152 130.169 10.152C130.346 10.152 130.536 10.152 130.739 10.152C130.941 10.1267 131.195 10.1013 131.499 10.076C131.6 10.076 131.777 10.0633 132.031 10.038C132.284 9.98733 132.537 9.94933 132.791 9.924C133.044 9.89867 133.272 9.89867 133.475 9.924C133.677 9.924 133.779 9.962 133.779 10.038C133.829 10.4687 133.842 10.8233 133.817 11.102ZM160.591 19.576C160.034 19.5507 159.629 19.5127 159.375 19.462V20.146C159.401 20.906 159.426 21.5267 159.451 22.008C159.502 22.4893 159.667 22.958 159.945 23.414C160.249 23.9967 160.68 24.4273 161.237 24.706C161.795 24.9847 162.339 25.0733 162.871 24.972C163.403 24.8707 163.847 24.5667 164.201 24.06C164.581 23.528 164.746 22.7427 164.695 21.704C164.949 21.7293 165.291 21.742 165.721 21.742C166.152 21.7167 166.595 21.6913 167.051 21.666C167.533 21.6407 167.989 21.6407 168.419 21.666C168.85 21.666 169.205 21.704 169.483 21.78C169.433 22.4387 169.382 23.0847 169.331 23.718C169.281 24.3513 169.217 24.9467 169.141 25.504C169.065 26.036 168.964 26.5047 168.837 26.91C168.736 27.29 168.597 27.556 168.419 27.708C167.989 28.316 167.431 28.7467 166.747 29C166.063 29.2533 165.316 29.4053 164.505 29.456C163.695 29.5067 162.859 29.5067 161.997 29.456C161.161 29.4053 160.389 29.38 159.679 29.38C158.97 29.2787 158.311 29.0507 157.703 28.696C157.019 28.2147 156.449 27.594 155.993 26.834C155.537 26.0487 155.17 25.2 154.891 24.288C154.613 23.3507 154.423 22.3627 154.321 21.324C154.22 20.2853 154.195 19.2467 154.245 18.208C154.321 17.2707 154.397 16.3713 154.473 15.51C154.575 14.6233 154.777 13.762 155.081 12.926C155.411 12.1913 155.917 11.5707 156.601 11.064C157.285 10.532 158.058 10.1393 158.919 9.886C159.781 9.60733 160.693 9.45533 161.655 9.43C162.618 9.40467 163.555 9.506 164.467 9.734C165.633 9.93667 166.57 10.342 167.279 10.95C167.989 11.558 168.521 12.2927 168.875 13.154C169.255 14.0153 169.483 14.9653 169.559 16.004C169.635 17.0427 169.635 18.094 169.559 19.158C169.382 19.2087 169.04 19.2593 168.533 19.31C168.052 19.3607 167.469 19.4113 166.785 19.462C166.127 19.5127 165.417 19.5507 164.657 19.576C163.897 19.6013 163.163 19.614 162.453 19.614C161.769 19.614 161.149 19.6013 160.591 19.576ZM165.037 14.598C164.784 14.142 164.429 13.8 163.973 13.572C163.771 13.4453 163.568 13.3567 163.365 13.306C163.163 13.23 162.922 13.192 162.643 13.192C162.035 13.192 161.541 13.2553 161.161 13.382C160.781 13.5087 160.477 13.686 160.249 13.914C160.021 14.142 159.844 14.408 159.717 14.712C159.616 15.016 159.54 15.3327 159.489 15.662C159.439 15.9407 159.413 16.1433 159.413 16.27C159.439 16.3713 159.565 16.4473 159.793 16.498C160.021 16.5233 160.376 16.536 160.857 16.536C161.364 16.5107 162.099 16.498 163.061 16.498C163.72 16.498 164.214 16.5107 164.543 16.536C164.873 16.5613 165.101 16.574 165.227 16.574C165.379 16.5487 165.455 16.5107 165.455 16.46C165.455 16.384 165.455 16.2447 165.455 16.042C165.455 15.5353 165.316 15.054 165.037 14.598Z" fill="white"/>
</svg>
