<svg width="240" height="360" viewBox="0 0 240 360" fill="none" xmlns="http://www.w3.org/2000/svg">
<path d="M67 169.143C67 165.657 68.396 162.314 70.8808 159.849C73.3657 157.385 76.7359 156 80.25 156H159.75C163.264 156 166.634 157.385 169.119 159.849C171.604 162.314 173 165.657 173 169.143V234.857C173 238.343 171.604 241.686 169.119 244.151C166.634 246.615 163.264 248 159.75 248H80.25C76.7359 248 73.3657 246.615 70.8808 244.151C68.396 241.686 67 238.343 67 234.857V169.143ZM73.625 228.286V234.857C73.625 236.6 74.323 238.271 75.5654 239.504C76.8078 240.736 78.4929 241.429 80.25 241.429H159.75C161.507 241.429 163.192 240.736 164.435 239.504C165.677 238.271 166.375 236.6 166.375 234.857V211.857L141.352 199.063C140.731 198.754 140.028 198.647 139.342 198.756C138.656 198.866 138.022 199.187 137.53 199.674L112.951 224.054L95.3285 212.409C94.6922 211.989 93.929 211.8 93.1683 211.874C92.4076 211.948 91.6962 212.281 91.1547 212.817L73.625 228.286ZM106.75 185.571C106.75 182.957 105.703 180.45 103.839 178.601C101.976 176.753 99.4481 175.714 96.8125 175.714C94.1769 175.714 91.6493 176.753 89.7856 178.601C87.922 180.45 86.875 182.957 86.875 185.571C86.875 188.186 87.922 190.693 89.7856 192.541C91.6493 194.39 94.1769 195.429 96.8125 195.429C99.4481 195.429 101.976 194.39 103.839 192.541C105.703 190.693 106.75 188.186 106.75 185.571Z" fill="white"/>
<path d="M102 121C107.523 121 112 125.477 112 131C112.001 132.553 111.64 134.084 110.946 135.473C110.252 136.862 109.244 138.069 108.001 139H110C110.265 139 110.52 139.105 110.707 139.293C110.895 139.48 111 139.735 111 140C111 140.265 110.895 140.52 110.707 140.707C110.52 140.895 110.265 141 110 141H102C96.477 141 92 136.523 92 131C92 125.477 96.477 121 102 121ZM102 133C101.47 133 100.961 133.211 100.586 133.586C100.211 133.961 100 134.47 100 135C100 135.53 100.211 136.039 100.586 136.414C100.961 136.789 101.47 137 102 137C102.53 137 103.039 136.789 103.414 136.414C103.789 136.039 104 135.53 104 135C104 134.47 103.789 133.961 103.414 133.586C103.039 133.211 102.53 133 102 133ZM98 129C97.4696 129 96.9609 129.211 96.5858 129.586C96.2107 129.961 96 130.47 96 131C96 131.53 96.2107 132.039 96.5858 132.414C96.9609 132.789 97.4696 133 98 133C98.5304 133 99.0391 132.789 99.4142 132.414C99.7893 132.039 100 131.53 100 131C100 130.47 99.7893 129.961 99.4142 129.586C99.0391 129.211 98.5304 129 98 129ZM106 129C105.47 129 104.961 129.211 104.586 129.586C104.211 129.961 104 130.47 104 131C104 131.53 104.211 132.039 104.586 132.414C104.961 132.789 105.47 133 106 133C106.53 133 107.039 132.789 107.414 132.414C107.789 132.039 108 131.53 108 131C108 130.47 107.789 129.961 107.414 129.586C107.039 129.211 106.53 129 106 129ZM102 125C101.47 125 100.961 125.211 100.586 125.586C100.211 125.961 100 126.47 100 127C100 127.53 100.211 128.039 100.586 128.414C100.961 128.789 101.47 129 102 129C102.53 129 103.039 128.789 103.414 128.414C103.789 128.039 104 127.53 104 127C104 126.47 103.789 125.961 103.414 125.586C103.039 125.211 102.53 125 102 125Z" fill="white"/>
<path d="M73.346 123.102C73.346 123.381 73.3587 123.697 73.384 124.052C73.5107 123.976 73.6627 123.887 73.84 123.786C74.0427 123.685 74.2073 123.583 74.334 123.482C74.866 123.102 75.4613 122.798 76.12 122.57C76.7787 122.342 77.45 122.215 78.134 122.19C78.8433 122.165 79.5273 122.241 80.186 122.418C80.8447 122.595 81.44 122.912 81.972 123.368C82.0987 123.495 82.2253 123.71 82.352 124.014C82.4787 123.938 82.6307 123.862 82.808 123.786C82.9853 123.685 83.1373 123.583 83.264 123.482C83.796 123.102 84.3913 122.798 85.05 122.57C85.7087 122.342 86.38 122.215 87.064 122.19C87.7733 122.165 88.4573 122.241 89.116 122.418C89.7747 122.595 90.37 122.912 90.902 123.368C91.1553 123.596 91.3453 124.077 91.472 124.812C91.624 125.521 91.7127 126.383 91.738 127.396C91.7887 128.409 91.8013 129.524 91.776 130.74C91.776 131.931 91.7633 133.147 91.738 134.388C91.7127 135.604 91.6873 136.782 91.662 137.922C91.6367 139.062 91.6493 140.063 91.7 140.924C90.8133 141.051 90.0153 141.101 89.306 141.076C88.622 141.076 87.8367 141.076 86.95 141.076C86.8993 140.493 86.874 139.835 86.874 139.1C86.874 138.365 86.874 137.605 86.874 136.82C86.8993 136.035 86.8993 135.249 86.874 134.464C86.874 133.679 86.8487 132.944 86.798 132.26C86.7727 131.956 86.7473 131.627 86.722 131.272C86.6967 130.892 86.646 130.525 86.57 130.17C86.5193 129.815 86.4307 129.499 86.304 129.22C86.2027 128.941 86.0507 128.726 85.848 128.574C85.8227 128.549 85.7973 128.536 85.772 128.536C85.7467 128.536 85.7213 128.523 85.696 128.498C85.544 128.422 85.354 128.359 85.126 128.308C84.898 128.257 84.6447 128.232 84.366 128.232C84.1127 128.232 83.8467 128.283 83.568 128.384C83.3147 128.46 83.074 128.587 82.846 128.764C82.8713 129.752 82.8713 130.803 82.846 131.918C82.8207 133.007 82.7953 134.097 82.77 135.186C82.7447 136.25 82.7193 137.289 82.694 138.302C82.694 139.29 82.7193 140.164 82.77 140.924C81.8833 141.051 81.0853 141.101 80.376 141.076C79.692 141.076 78.9067 141.076 78.02 141.076C77.9693 140.493 77.944 139.835 77.944 139.1C77.944 138.365 77.944 137.605 77.944 136.82C77.9693 136.035 77.9693 135.249 77.944 134.464C77.944 133.679 77.9187 132.944 77.868 132.26C77.8427 131.956 77.8173 131.627 77.792 131.272C77.7667 130.892 77.716 130.525 77.64 130.17C77.5893 129.815 77.5007 129.499 77.374 129.22C77.2727 128.941 77.1207 128.726 76.918 128.574C76.8927 128.549 76.8673 128.536 76.842 128.536C76.8167 128.536 76.7913 128.523 76.766 128.498C76.5633 128.397 76.2593 128.321 75.854 128.27C75.474 128.194 75.094 128.219 74.714 128.346C74.334 128.447 73.992 128.675 73.688 129.03C73.384 129.359 73.2067 129.866 73.156 130.55C73.1053 131.437 73.0927 132.311 73.118 133.172C73.1433 134.008 73.1687 134.857 73.194 135.718C73.2447 136.554 73.27 137.39 73.27 138.226C73.27 139.062 73.2193 139.898 73.118 140.734V140.886C72.6873 141.013 72.3073 141.089 71.978 141.114C71.674 141.139 71.3573 141.139 71.028 141.114C70.6987 141.114 70.3313 141.101 69.926 141.076C69.5207 141.051 69.014 141.063 68.406 141.114C68.406 137.998 68.368 134.882 68.292 131.766C68.2413 128.65 68.2667 125.42 68.368 122.076C68.672 122.101 68.9253 122.127 69.128 122.152C69.3307 122.152 69.5207 122.152 69.698 122.152C69.8753 122.152 70.0653 122.152 70.268 122.152C70.4707 122.127 70.724 122.101 71.028 122.076C71.1293 122.076 71.3067 122.063 71.56 122.038C71.8133 121.987 72.0667 121.949 72.32 121.924C72.5733 121.899 72.8013 121.899 73.004 121.924C73.2067 121.924 73.308 121.962 73.308 122.038C73.3587 122.469 73.3713 122.823 73.346 123.102ZM113.126 122.076C114.038 122 114.899 122.013 115.71 122.114C115.887 123.026 116.064 124.077 116.242 125.268C116.419 126.433 116.609 127.624 116.812 128.84C117.014 130.056 117.23 131.221 117.458 132.336C117.686 133.425 117.939 134.35 118.218 135.11C118.496 134.35 118.75 133.4 118.978 132.26C119.206 131.095 119.421 129.891 119.624 128.65C119.852 127.409 120.092 126.205 120.346 125.04C120.599 123.875 120.878 122.912 121.182 122.152C121.612 122.152 122.018 122.139 122.398 122.114C122.778 122.089 123.17 122.063 123.576 122.038C123.981 122.013 124.399 122 124.83 122C125.26 122 125.742 122.013 126.274 122.038C125.742 123.482 125.273 124.989 124.868 126.56C124.488 128.105 124.12 129.689 123.766 131.31C123.411 132.931 123.056 134.565 122.702 136.212C122.347 137.833 121.954 139.442 121.524 141.038C121.017 141.114 120.447 141.152 119.814 141.152C119.206 141.177 118.572 141.177 117.914 141.152C117.28 141.152 116.647 141.139 116.014 141.114C115.406 141.114 114.861 141.114 114.38 141.114C113.873 137.947 113.29 134.717 112.632 131.424C111.973 128.131 111.238 124.989 110.428 122C111.34 122.101 112.239 122.127 113.126 122.076ZM130.215 121.886C130.797 121.911 131.494 121.911 132.305 121.886H132.951V122C132.925 125.065 132.862 128.194 132.761 131.386C132.685 134.578 132.735 137.707 132.913 140.772C132.786 140.924 132.469 141 131.963 141C131.456 141.025 130.899 141.025 130.291 141C129.708 141 129.151 140.987 128.619 140.962C128.087 140.937 127.732 140.949 127.555 141C127.681 139.404 127.732 137.783 127.707 136.136C127.707 134.489 127.681 132.855 127.631 131.234C127.58 129.613 127.555 128.017 127.555 126.446C127.555 124.85 127.631 123.305 127.783 121.81V121.772C127.884 121.747 128.049 121.747 128.277 121.772C128.53 121.797 128.72 121.81 128.847 121.81C129.176 121.835 129.632 121.861 130.215 121.886ZM127.669 116.566C127.618 115.755 127.605 114.767 127.631 113.602L132.799 113.716C132.799 113.868 132.799 114.147 132.799 114.552C132.824 114.932 132.837 115.363 132.837 115.844C132.862 116.3 132.875 116.781 132.875 117.288C132.9 117.769 132.913 118.2 132.913 118.58C132.811 118.732 132.571 118.833 132.191 118.884C131.836 118.935 131.405 118.96 130.899 118.96C130.417 118.935 129.898 118.909 129.341 118.884C128.783 118.833 128.264 118.821 127.783 118.846C127.783 118.111 127.745 117.351 127.669 116.566ZM141.312 131.576C140.755 131.551 140.349 131.513 140.096 131.462V132.146C140.121 132.906 140.147 133.527 140.172 134.008C140.223 134.489 140.387 134.958 140.666 135.414C140.97 135.997 141.401 136.427 141.958 136.706C142.515 136.985 143.06 137.073 143.592 136.972C144.124 136.871 144.567 136.567 144.922 136.06C145.302 135.528 145.467 134.743 145.416 133.704C145.669 133.729 146.011 133.742 146.442 133.742C146.873 133.717 147.316 133.691 147.772 133.666C148.253 133.641 148.709 133.641 149.14 133.666C149.571 133.666 149.925 133.704 150.204 133.78C150.153 134.439 150.103 135.085 150.052 135.718C150.001 136.351 149.938 136.947 149.862 137.504C149.786 138.036 149.685 138.505 149.558 138.91C149.457 139.29 149.317 139.556 149.14 139.708C148.709 140.316 148.152 140.747 147.468 141C146.784 141.253 146.037 141.405 145.226 141.456C144.415 141.507 143.579 141.507 142.718 141.456C141.882 141.405 141.109 141.38 140.4 141.38C139.691 141.279 139.032 141.051 138.424 140.696C137.74 140.215 137.17 139.594 136.714 138.834C136.258 138.049 135.891 137.2 135.612 136.288C135.333 135.351 135.143 134.363 135.042 133.324C134.941 132.285 134.915 131.247 134.966 130.208C135.042 129.271 135.118 128.371 135.194 127.51C135.295 126.623 135.498 125.762 135.802 124.926C136.131 124.191 136.638 123.571 137.322 123.064C138.006 122.532 138.779 122.139 139.64 121.886C140.501 121.607 141.413 121.455 142.376 121.43C143.339 121.405 144.276 121.506 145.188 121.734C146.353 121.937 147.291 122.342 148 122.95C148.709 123.558 149.241 124.293 149.596 125.154C149.976 126.015 150.204 126.965 150.28 128.004C150.356 129.043 150.356 130.094 150.28 131.158C150.103 131.209 149.761 131.259 149.254 131.31C148.773 131.361 148.19 131.411 147.506 131.462C146.847 131.513 146.138 131.551 145.378 131.576C144.618 131.601 143.883 131.614 143.174 131.614C142.49 131.614 141.869 131.601 141.312 131.576ZM145.758 126.598C145.505 126.142 145.15 125.8 144.694 125.572C144.491 125.445 144.289 125.357 144.086 125.306C143.883 125.23 143.643 125.192 143.364 125.192C142.756 125.192 142.262 125.255 141.882 125.382C141.502 125.509 141.198 125.686 140.97 125.914C140.742 126.142 140.565 126.408 140.438 126.712C140.337 127.016 140.261 127.333 140.21 127.662C140.159 127.941 140.134 128.143 140.134 128.27C140.159 128.371 140.286 128.447 140.514 128.498C140.742 128.523 141.097 128.536 141.578 128.536C142.085 128.511 142.819 128.498 143.782 128.498C144.441 128.498 144.935 128.511 145.264 128.536C145.593 128.561 145.821 128.574 145.948 128.574C146.1 128.549 146.176 128.511 146.176 128.46C146.176 128.384 146.176 128.245 146.176 128.042C146.176 127.535 146.037 127.054 145.758 126.598ZM170.554 138.986C170.554 139.442 170.567 139.885 170.592 140.316C170.592 140.468 170.516 140.595 170.364 140.696C170.212 140.772 170.022 140.835 169.794 140.886C169.566 140.937 169.313 140.975 169.034 141C168.755 141 168.502 141 168.274 141C167.641 141 166.982 140.975 166.298 140.924C165.639 140.848 165.057 140.785 164.55 140.734V140.696V137.01C164.55 134.553 164.626 132.121 164.778 129.714C164.93 127.307 165.006 124.875 165.006 122.418C165.006 122.291 165.006 122.177 165.006 122.076C165.006 121.975 164.993 121.861 164.968 121.734C164.841 121.709 164.727 121.81 164.626 122.038C164.525 122.241 164.411 122.481 164.284 122.76C164.157 123.013 164.018 123.254 163.866 123.482C163.714 123.71 163.537 123.824 163.334 123.824C163.207 123.824 162.903 123.773 162.422 123.672C161.941 123.571 161.421 123.444 160.864 123.292C160.307 123.14 159.813 122.988 159.382 122.836C158.951 122.684 158.736 122.545 158.736 122.418C158.761 122.114 158.888 121.709 159.116 121.202C159.344 120.695 159.61 120.138 159.914 119.53C160.243 118.922 160.598 118.301 160.978 117.668C161.358 117.035 161.713 116.452 162.042 115.92C162.371 115.388 162.65 114.945 162.878 114.59C163.131 114.21 163.283 113.995 163.334 113.944C163.917 113.919 164.487 113.906 165.044 113.906C165.627 113.881 166.209 113.868 166.792 113.868C167.451 113.868 168.109 113.881 168.768 113.906C169.427 113.931 170.098 113.969 170.782 114.02C170.858 115.109 170.909 116.186 170.934 117.25C170.959 118.289 170.972 119.34 170.972 120.404C170.972 123.317 170.896 126.193 170.744 129.03C170.617 131.867 170.554 134.743 170.554 137.656C170.554 138.087 170.554 138.53 170.554 138.986Z" fill="white"/>
<rect x="0.5" y="0.5" width="239" height="359" stroke="white"/>
</svg>
